<svg fill="none" height="17" viewBox="0 0 17 17" width="17" xmlns="http://www.w3.org/2000/svg"><g stroke="currentColor" stroke-linecap="round" stroke-linejoin="round" stroke-width="1.66667"><path d="m1.41669 2.125h4.25c.75144 0 1.47211.29851 2.00347.82986.53135.53136.82986 1.25203.82986 2.00347v9.91667c0-.5636-.22388-1.1041-.6224-1.5026-.39851-.3985-.93901-.6224-1.5026-.6224h-4.95833z"/><path d="m15.5833 2.125h-4.25c-.7514 0-1.47208.29851-2.00344.82986-.53135.53136-.82986 1.25203-.82986 2.00347v9.91667c0-.5636.22388-1.1041.6224-1.5026.39851-.3985.939-.6224 1.5026-.6224h4.9583z"/></g></svg>
