<svg fill="none" height="17" viewBox="0 0 17 17" width="17" xmlns="http://www.w3.org/2000/svg"><path d="m4.95833 4.95833h7.08337m1.4166 2.83334h-9.91663zm0 0c.3758 0 .7361.14925 1.0018.41493.2656.26568.4149.62601.4149 1.00173v4.24997c0 .3758-.1493.7361-.4149 1.0018-.2657.2656-.626.4149-1.0018.4149h-9.91663c-.37573 0-.73606-.1493-1.00174-.4149-.26567-.2657-.41493-.626-.41493-1.0018v-4.24997c0-.37572.14926-.73605.41493-1.00173.26568-.26568.62601-.41493 1.00174-.41493zm0 0v-1.41667c0-.37572-.1492-.73606-.4149-1.00173-.2657-.26568-.626-.41494-1.0017-.41494zm-9.91663 0v-1.41667c0-.37572.14925-.73606.41493-1.00173.26568-.26568.62601-.41494 1.00173-.41494zm1.41666-2.83334v-1.41666c0-.37573.14926-.73606.41494-1.00174.26567-.26567.62601-.41493 1.00173-.41493h4.25c.3757 0 .7361.14926 1.0017.41493.2657.26568.415.62601.415 1.00174v1.41666z" stroke="#ceabff" stroke-linecap="round" stroke-linejoin="round" stroke-width="1.66667"/></svg>