<svg fill="none" height="30" viewBox="0 0 26 30" width="26" xmlns="http://www.w3.org/2000/svg"><path d="m10.3755 12.478c-.8265 0-1.479.725-1.479 1.6095s.667 1.6095 1.479 1.6095c.8265 0 1.479-.725 1.479-1.6095.0145-.8845-.6525-1.6095-1.479-1.6095zm5.2925 0c-.8265 0-1.479.725-1.479 1.6095s.667 1.6095 1.479 1.6095c.8265 0 1.479-.725 1.479-1.6095s-.6525-1.6095-1.479-1.6095z"/><path d="m22.715.3125h-19.43c-1.6385 0-2.9725 1.334-2.9725 2.987v19.604c0 1.653 1.334 2.987 2.9725 2.987h16.443l-.7685-2.6825 1.856 1.7255 1.7545 1.624 3.1175 2.755v-26.013c0-1.653-1.334-2.987-2.9725-2.987zm-5.597 18.937s-.522-.6235-.957-1.1745c1.8995-.5365 2.6245-1.7255 2.6245-1.7255-.5945.3915-1.16.667-1.6675.8555-.725.3045-1.421.5075-2.1025.6235-1.392.261-2.668.1885-3.7555-.0145-.8265-.1595-1.537-.3915-2.1315-.6235-.3335-.1305-.696-.29-1.0585-.493-.0435-.029-.087-.0435-.1305-.0725-.029-.0145-.0435-.029-.058-.0435-.261-.145-.406-.2465-.406-.2465s.696 1.16 2.5375 1.711c-.435.551-.9715 1.2035-.9715 1.2035-3.2045-.1015-4.4225-2.204-4.4225-2.204 0-4.669 2.088-8.4535 2.088-8.4535 2.088-1.566 4.0745-1.5225 4.0745-1.5225l.145.174c-2.61.754-3.8135 1.8995-3.8135 1.8995s.319-.174.8555-.4205c1.5515-.6815 2.784-.87 3.2915-.9135.087-.0145.1595-.029.2465-.029.8845-.116 1.885-.145 2.929-.029 1.3775.1595 2.8565.5655 4.3645 1.392 0 0-1.1455-1.0875-3.6105-1.8415l.203-.232s1.9865-.0435 4.0745 1.5225c0 0 2.088 3.7845 2.088 8.4535 0 0-1.2325 2.1025-4.437 2.204z"/></svg>