<svg fill="none" height="30" viewBox="0 0 30 30" width="30" xmlns="http://www.w3.org/2000/svg"><path clip-rule="evenodd" d="m14.9557.847656c-7.98169 0-14.4557 6.474004-14.4557 14.455644 0 6.3853 4.1682 11.7951 9.844 13.7462.7095.0887.9756-.3547.9756-.7095 0-.3547 0-1.2416 0-2.4832-3.99085.8869-4.8777-1.951-4.8777-1.951-.6208-1.6851-1.59633-2.1285-1.59633-2.1285-1.33028-.8868.08868-.8868.08868-.8868 1.41896.0887 2.21713 1.5076 2.21713 1.5076 1.33027 2.2171 3.37002 1.5963 4.16822 1.2416.0887-.9755.5321-1.5963.8868-1.9511-3.19264-.3547-6.56267-1.5963-6.56267-7.1835 0-1.5963.53211-2.8379 1.50765-3.9021-.08869-.266-.6208-1.77369.17737-3.72476 0 0 1.24159-.35474 3.99085 1.50764 1.1529-.35474 2.3945-.44342 3.6361-.44342 1.2415 0 2.4831.17737 3.636.44342 2.7493-1.86238 3.9909-1.50764 3.9909-1.50764.7981 1.95107.266 3.45876.1773 3.81346.8869.9755 1.5077 2.3058 1.5077 3.9021 0 5.5872-3.37 6.7401-6.5627 7.0948.5321.4435.9755 1.3303.9755 2.6606v3.9908c0 .3548.2661.7982.9756.7095 5.7645-1.9511 9.844-7.3609 9.844-13.7462-.0887-7.98164-6.5627-14.455644-14.5443-14.455644z" fill-rule="evenodd"/></svg>