<svg fill="none" height="25" viewBox="0 0 30 25" width="30" xmlns="http://www.w3.org/2000/svg"><path d="m2.6811 10.4713c7.7846-3.39165 12.9756-5.62762 15.5729-6.70793 7.4158-3.084506 8.9568-3.620317 9.9611-3.638198.2209-.003703.7149.051042 1.0348.310652.2702.219209.3445.51533.3801.723166.0355.20783.0798.68128.0446 1.05123-.4019 4.22245-2.1407 14.46928-3.0254 19.19848-.3743 2.0011-1.1114 2.672-1.8249 2.7377-1.5507.1427-2.7283-1.0248-4.2302-2.0094-2.3503-1.5406-3.678-2.4996-5.9594-4.003-2.6364-1.7374-.9273-2.6923.5752-4.2529.3932-.4084 7.2257-6.62308 7.358-7.18685.0165-.07051.0319-.33333-.1243-.47211-.1561-.13878-.3866-.09133-.5529-.05358-.2357.0535-3.9902 2.53512-11.2636 7.44484-1.06577.7318-2.03106 1.0884-2.89594 1.0697-.95345-.0206-2.78751-.5391-4.15094-.9823-1.67231-.5436-3.001431-.831-2.885694-1.7542.060282-.4808.722474-.9726 1.986574-1.4753z"/></svg>