<svg fill="none" height="24" viewBox="0 0 30 24" width="30" xmlns="http://www.w3.org/2000/svg"><path d="m29.5 2.9375c-1.0875.54375-2.175.725-3.4437.90625 1.2687-.725 2.1749-1.8125 2.5375-3.2625-1.0876.725-2.3563 1.0875-3.8063 1.45-1.0875-1.0875-2.7188-1.8125-4.35-1.8125-3.8062 0-6.7062 3.625-5.8 7.25-4.89375-.18125-9.24375-2.5375-12.325-6.1625-1.63125 2.71875-.725 6.1625 1.8125 7.975-.90625 0-1.8125-.3625-2.71875-.725 0 2.71875 1.99375 5.25625 4.7125 5.98125-.90625.1812-1.8125.3625-2.71875.1813.725 2.3562 2.9 4.1687 5.61875 4.1687-2.175 1.6312-5.4375 2.5375-8.51875 2.175 2.71875 1.6312 5.8 2.7187 9.0625 2.7187 11.0562 0 17.2187-9.2437 16.8562-17.76245 1.2688-.725 2.3563-1.8125 3.0813-3.08125z"/></svg>