<svg fill="none" height="68" viewBox="0 0 220 68" width="220" xmlns="http://www.w3.org/2000/svg" xmlns:xlink="http://www.w3.org/1999/xlink"><linearGradient id="a" gradientUnits="userSpaceOnUse" x1="131.358" x2="114.601" y1="5.978" y2="62.8077"><stop offset="0" stop-color="#35ff92"/><stop offset="1" stop-color="#f8cdf3"/></linearGradient><path d="m19.8572 1h198.857v47.1429h-198.857z" fill="url(#a)" stroke="#3f07ed" stroke-linejoin="round" stroke-width=".857143"/><path d="m39.4583 30.449c.144.9463.5246 1.5634 1.1417 1.8514.6172.288 1.3577.432 2.2217.432 1.0286 0 1.7589-.1234 2.1909-.3703.4526-.2674.6788-.6891.6788-1.2651 0-.4114-.144-.7714-.432-1.08-.2674-.3086-.792-.5246-1.5737-.648l-2.2217-.3703c-1.9543-.3086-3.4148-.8331-4.3817-1.5737-.9463-.7611-1.4194-1.9029-1.4194-3.4251 0-.7818.1645-1.4812.4937-2.0983.3497-.6172.8331-1.1417 1.4503-1.5737.6171-.432 1.3474-.7612 2.1908-.9875.864-.2468 1.8103-.3703 2.8389-.3703 1.2754 0 2.3451.1338 3.2091.4012.864.2468 1.5635.5863 2.0983 1.0183.5554.432.9669.9463 1.2343 1.5428.288.5966.4937 1.2343.6171 1.9132l-3.8571.4937c-.1851-.7406-.5143-1.2857-.9874-1.6354-.4526-.3498-1.1932-.5246-2.2217-.5246-.576 0-1.0595.0514-1.4503.1543-.3703.0823-.6686.1954-.8949.3394-.2057.144-.36.3086-.4628.4937-.0823.1852-.1235.36-.1235.5246 0 .5143.1543.8948.4629 1.1417.3291.2263.9566.4217 1.8823.5863l2.0365.3394c1.1315.1852 2.0675.4217 2.808.7097.7406.288 1.3269.648 1.7589 1.08.4526.4115.7611.9052.9257 1.4812.1852.576.2777 1.2445.2777 2.0057 0 1.5223-.576 2.7463-1.728 3.672-1.152.9051-2.9314 1.3577-5.3383 1.3577-.9668 0-1.8925-.0926-2.7771-.2777-.864-.1646-1.6457-.4629-2.3451-.8949-.6789-.432-1.2446-1.008-1.6972-1.728-.432-.72-.6788-1.6251-.7406-2.7154zm11.7291-10.9851h4.6903l2.2526 10.6765 3.0857-10.5531h3.7645l2.9315 10.5531 2.2525-10.6765h4.5052l-4.6903 16.1074h-4.1966l-2.8697-10.6149-2.9006 10.6149h-4.1348zm35.1598 14.0708c-.6377.72-1.3577 1.3063-2.16 1.7589-.7817.4525-1.8.6788-3.0549.6788-.72 0-1.4091-.0925-2.0674-.2777-.6377-.1851-1.2034-.4731-1.6971-.864-.4732-.3908-.8538-.8846-1.1418-1.4811-.288-.6172-.432-1.3475-.432-2.1909 0-1.1108.2469-2.016.7406-2.7154s1.1417-1.2446 1.944-1.6354c.8023-.3909 1.6972-.6686 2.6846-.8332 1.008-.1646 2.0263-.2674 3.0548-.3086l2.0675-.0925v-.8023c0-.9874-.2777-1.6663-.8332-2.0366-.5348-.3703-1.1725-.5554-1.9131-.5554-1.7074 0-2.6846.648-2.9314 1.944l-3.9498-.3703c.288-1.6869 1.0286-2.9006 2.2218-3.6411 1.1931-.7612 2.7977-1.1418 4.8137-1.1418 1.2343 0 2.2834.1543 3.1474.4629.864.288 1.5531.7097 2.0674 1.2651.5349.5555.9155 1.2343 1.1417 2.0366.2469.7817.3703 1.6663.3703 2.6537v10.1829h-4.0731zm-.0926-5.1531-1.9131.0925c-.9052.0412-1.6355.1338-2.1909.2778s-.9874.3291-1.296.5554c-.288.2057-.4834.4526-.5863.7406-.1028.288-.1543.6068-.1543.9565 0 .5349.1852.9566.5555 1.2652.3703.3085.8845.4628 1.5428.4628 1.1109 0 2.016-.2571 2.7155-.7714.3908-.288.7097-.648.9565-1.08.2469-.4526.3703-1.008.3703-1.6663zm7.864 9.4731c.5966.1646 1.2034.2469 1.8206.2469.576 0 1.0388-.144 1.3885-.432.3498-.2675.648-.7509.8949-1.4503l.4937-1.3577-6.696-15.3977h4.9989l3.7648 10.584 3.517-10.584h4.722l-6.511 16.5702c-.371.9258-.72 1.728-1.049 2.4069-.33.6994-.71 1.2754-1.142 1.728-.4115.4731-.9155.8229-1.5121 1.0491-.576.2263-1.296.3395-2.16.3395-.5349 0-1.0697-.0412-1.6046-.1235-.5143-.0617-1.0594-.1851-1.6354-.3702zm27.0324-7.4057c.144.9463.525 1.5634 1.142 1.8514s1.358.432 2.222.432c1.028 0 1.759-.1234 2.191-.3703.452-.2674.679-.6891.679-1.2651 0-.4114-.144-.7714-.432-1.08-.268-.3086-.792-.5246-1.574-.648l-2.222-.3703c-1.954-.3086-3.415-.8331-4.382-1.5737-.946-.7611-1.419-1.9029-1.419-3.4251 0-.7818.165-1.4812.494-2.0983.349-.6172.833-1.1417 1.45-1.5737s1.347-.7612 2.191-.9875c.864-.2468 1.81-.3703 2.839-.3703 1.275 0 2.345.1338 3.209.4012.864.2468 1.563.5863 2.098 1.0183.556.432.967.9463 1.234 1.5428.288.5966.494 1.2343.618 1.9132l-3.858.4937c-.185-.7406-.514-1.2857-.987-1.6354-.453-.3498-1.193-.5246-2.222-.5246-.576 0-1.059.0514-1.45.1543-.37.0823-.669.1954-.895.3394-.206.144-.36.3086-.463.4937-.082.1852-.123.36-.123.5246 0 .5143.154.8948.463 1.1417.329.2263.956.4217 1.882.5863l2.037.3394c1.131.1852 2.067.4217 2.808.7097.74.288 1.326.648 1.758 1.08.453.4115.762.9052.926 1.4812.185.576.278 1.2445.278 2.0057 0 1.5223-.576 2.7463-1.728 3.672-1.152.9051-2.932 1.3577-5.338 1.3577-.967 0-1.893-.0926-2.778-.2777-.864-.1646-1.645-.4629-2.345-.8949-.679-.432-1.244-1.008-1.697-1.728-.432-.72-.679-1.6251-.74-2.7154zm21.048 5.616c-2.592 0-4.597-.7406-6.017-2.2217-1.419-1.4812-2.129-3.6-2.129-6.3566 0-1.3166.185-2.4994.555-3.5486.391-1.0697.936-1.9645 1.636-2.6845.72-.7406 1.584-1.3063 2.592-1.6972 1.008-.3908 2.129-.5863 3.363-.5863 1.255 0 2.387.1955 3.395.5863 1.008.3909 1.861.9566 2.561 1.6972.72.72 1.265 1.6148 1.635 2.6845.37 1.0492.556 2.232.556 3.5486 0 1.3372-.196 2.5406-.587 3.6103-.37 1.0491-.915 1.944-1.635 2.6846-.7.7405-1.553 1.3063-2.561 1.6971-1.008.3909-2.129.5863-3.364.5863zm0-3.456c1.235 0 2.15-.4423 2.747-1.3269.617-.8845.925-2.1497.925-3.7954s-.308-2.9006-.925-3.7646c-.597-.864-1.512-1.296-2.747-1.296-1.234 0-2.16.432-2.777 1.296-.596.864-.895 2.1189-.895 3.7646 0 1.6663.299 2.9417.895 3.8263.597.864 1.522 1.296 2.777 1.296zm25.896-2.8697c-.165 1.9337-.833 3.4766-2.006 4.6286-1.152 1.1314-2.89 1.6971-5.215 1.6971-1.357 0-2.53-.2057-3.517-.6171-.988-.4115-1.8-.9875-2.438-1.728-.617-.7406-1.08-1.6355-1.389-2.6846-.308-1.0492-.462-2.2114-.462-3.4869 0-1.2754.174-2.4377.524-3.4868.37-1.0697.895-1.9749 1.574-2.7155.679-.7611 1.512-1.3474 2.499-1.7588.988-.4114 2.119-.6172 3.395-.6172 1.09 0 2.036.144 2.838.432.823.2675 1.512.648 2.068 1.1418.555.4937.987 1.0902 1.296 1.7897.308.6788.514 1.4297.617 2.2525l-4.351.5863c-.103-.8228-.339-1.4811-.71-1.9748-.37-.5143-1.008-.7715-1.913-.7715-.658 0-1.203.144-1.635.432-.432.2675-.782.6378-1.049 1.1109-.247.4731-.422 1.0183-.525 1.6354-.103.5966-.154 1.224-.154 1.8823 0 .6789.051 1.3269.154 1.944.103.6172.278 1.1623.525 1.6354.247.4732.586.8538 1.018 1.1418.432.2674.977.4011 1.635.4011.864 0 1.533-.2469 2.006-.7406s.751-1.2034.833-2.1291zm3.127-10.2754h4.32v16.1074h-4.32zm-.062-5.9246h4.444v3.888h-4.444zm17.793 19.9954c-.638.72-1.358 1.3063-2.16 1.7589-.782.4525-1.8.6788-3.055.6788-.72 0-1.409-.0925-2.067-.2777-.638-.1851-1.204-.4731-1.697-.864-.473-.3908-.854-.8846-1.142-1.4811-.288-.6172-.432-1.3475-.432-2.1909 0-1.1108.247-2.016.741-2.7154.493-.6994 1.141-1.2446 1.944-1.6354.802-.3909 1.697-.6686 2.684-.8332 1.008-.1646 2.026-.2674 3.055-.3086l2.067-.0925v-.8023c0-.9874-.277-1.6663-.833-2.0366-.535-.3703-1.172-.5554-1.913-.5554-1.707 0-2.684.648-2.931 1.944l-3.95-.3703c.288-1.6869 1.029-2.9006 2.222-3.6411 1.193-.7612 2.797-1.1418 4.813-1.1418 1.235 0 2.284.1543 3.148.4629.864.288 1.553.7097 2.067 1.2651.535.5555.916 1.2343 1.142 2.0366.247.7817.37 1.6663.37 2.6537v10.1829h-4.073zm-.092-5.1531-1.914.0925c-.905.0412-1.635.1338-2.19.2778-.556.144-.988.3291-1.296.5554-.288.2057-.484.4526-.587.7406s-.154.6068-.154.9565c0 .5349.185.9566.555 1.2652.371.3085.885.4628 1.543.4628 1.111 0 2.016-.2571 2.716-.7714.391-.288.709-.648.956-1.08.247-.4526.371-1.008.371-1.6663zm7.854-14.8423h4.32v22.032h-4.32z" fill="#3f07ed"/><g fill="#f9f8f2" stroke="#3f07ed" stroke-linejoin="round" stroke-width=".857143"><path d="m1 19.8571 18.8571-18.8571v47.1429l-18.8571 18.8571z"/><path d="m1 67.0002 18.8571-18.8571h198.8569l-18.857 18.8571z"/></g></svg>