<svg fill="none" height="682" viewBox="0 0 364 682" width="364" xmlns="http://www.w3.org/2000/svg" xmlns:xlink="http://www.w3.org/1999/xlink"><filter id="a" color-interpolation-filters="sRGB" filterUnits="userSpaceOnUse" height="626" width="241" x="53.5" y="55.5"><feFlood flood-opacity="0" result="BackgroundImageFix"/><feColorMatrix in="SourceAlpha" result="hardAlpha" type="matrix" values="0 0 0 0 0 0 0 0 0 0 0 0 0 0 0 0 0 0 127 0"/><feOffset dx="-1" dy="1"/><feGaussianBlur stdDeviation="2"/><feComposite in2="hardAlpha" operator="out"/><feColorMatrix type="matrix" values="0 0 0 0 1 0 0 0 0 1 0 0 0 0 1 0 0 0 0.9 0"/><feBlend in2="BackgroundImageFix" mode="normal" result="effect1_dropShadow_3131_130"/><feBlend in="SourceGraphic" in2="effect1_dropShadow_3131_130" mode="normal" result="shape"/></filter><filter id="b" color-interpolation-filters="sRGB" filterUnits="userSpaceOnUse" height="44.6521" width="92.1304" x="271.435" y="558.435"><feFlood flood-opacity="0" result="BackgroundImageFix"/><feBlend in="SourceGraphic" in2="BackgroundImageFix" mode="normal" result="shape"/><feColorMatrix in="SourceAlpha" result="hardAlpha" type="matrix" values="0 0 0 0 0 0 0 0 0 0 0 0 0 0 0 0 0 0 127 0"/><feOffset dy="7.91304"/><feComposite in2="hardAlpha" k2="-1" k3="1" operator="arithmetic"/><feColorMatrix type="matrix" values="0 0 0 0 1 0 0 0 0 1 0 0 0 0 1 0 0 0 1 0"/><feBlend in2="shape" mode="normal" result="effect1_innerShadow_3131_130"/></filter><linearGradient id="c" gradientUnits="userSpaceOnUse" x1="506.283" x2="412.701" y1="339.857" y2="779.643"><stop offset="0" stop-color="#fff"/><stop offset="1" stop-color="#f7cdf3"/></linearGradient><linearGradient id="d" gradientUnits="userSpaceOnUse" x1="323.024" x2="297.969" y1="563.596" y2="605.717"><stop offset="0" stop-color="#131d42"/><stop offset="1" stop-color="#3f07ed"/></linearGradient><g filter="url(#a)"><path d="m59 504.5v86.666c0 23.656 19.1775 42.834 42.834 42.834h23.78c12.916 0 23.386 10.47 23.386 23.386 0 10.28 8.334 18.614 18.614 18.614h23.691c11.982 0 21.695-9.713 21.695-21.695v-70.805c0-21.539 17.461-39 39-39s39-17.461 39-39v-171.931c0-10.609-4.214-20.783-11.716-28.285l-27.068-27.068c-7.502-7.502-17.676-11.716-28.285-11.716h-77.362c-10.609 0-20.783-4.214-28.285-11.716l-40.0683-40.068c-7.5014-7.502-11.7157-17.676-11.7157-28.285v-87.431c0-22.0914 17.9086-40 40-40h42.5" stroke="url(#c)" stroke-dasharray="2 2" stroke-linecap="round"/></g><path d="m114.116 506.368-13.632 13.632v-34.08l13.632-13.632z" fill="#353b8b" stroke="#000" stroke-linejoin="round" stroke-width="1.01515"/><path d="m114.116 472.288-13.632 13.632h-99.41177l13.63197-13.632z" fill="#353b8b" stroke="#000" stroke-linejoin="round" stroke-width="1.01515"/><path d="m100.484 520h-99.484168l.000003-34.515h99.485165z" fill="#353b8b" stroke="#000" stroke-linejoin="round" stroke-width="1.01515"/><g fill="#f7cdf3"><path d="m40.9099 464.903c0 .226.1826.408.4079.408.2252 0 .4079-.182.4079-.408zm.8158 0v-7.117h-.8158v7.117zm-10.3872-7.117v27.214h.8157v-27.214zm5.1936-5.194c-2.8684 0-5.1936 2.325-5.1936 5.194h.8157c0-2.418 1.96-4.378 4.3779-4.378zm5.1936 5.194c0-2.869-2.3253-5.194-5.1936-5.194v.816c2.4178 0 4.3778 1.96 4.3778 4.378z"/><path d="m28.7283 464.903c0 .226.1826.408.4078.408.2253 0 .4079-.182.4079-.408zm.8157 0v-7.335h-.8157v7.335zm-9.9521-7.335v27.432h.8157v-27.432zm4.976-4.976c-2.7482 0-4.976 2.228-4.976 4.976h.8157c0-2.297 1.8627-4.16 4.1603-4.16zm4.9761 4.976c0-2.748-2.2278-4.976-4.9761-4.976v.816c2.2977 0 4.1604 1.863 4.1604 4.16z"/><path d="m31.7465 465.59c.2253 0 .4079-.183.4079-.408s-.1826-.408-.4079-.408zm-11.7467 0h11.7467v-.816h-11.7467z"/><path d="m31.7465 473.421c.2253 0 .4079-.183.4079-.408s-.1826-.408-.4079-.408zm-11.7467 0h11.7467v-.816h-11.7467z"/><path d="m31.7465 481.252c.2253 0 .4079-.182.4079-.408 0-.225-.1826-.408-.4079-.408zm-11.7467 0h11.7467v-.816h-11.7467z"/></g><path d="m243.117 54.368-13.632 13.632v-34.08l13.632-13.632z" fill="#131d42" stroke="#000" stroke-linejoin="round" stroke-width="1.01515"/><path d="m243.117 20.2879-13.632 13.632h-99.413l13.632-13.632z" fill="#131d42" stroke="#000" stroke-linejoin="round" stroke-width="1.01515"/><path d="m229.485 67.9998-99.485-.0001v-34.515h99.485z" fill="#131d42" stroke="#000" stroke-linejoin="round" stroke-width="1.01515"/><g fill="#35ff92"><path d="m174.91 12.9034c0 .2253.183.4079.408.4079s.408-.1826.408-.4079zm.816 0v-7.11768h-.816v7.11768zm-10.387-7.11768v27.21428h.816v-27.21428zm5.193-5.193594c-2.868 0-5.193 2.325254-5.193 5.193594h.816c0-2.41782 1.96-4.37785 4.377-4.37785zm5.194 5.193594c0-2.86835-2.325-5.193594-5.194-5.193594v.815744c2.418 0 4.378 1.96003 4.378 4.37785z"/><path d="m162.729 12.9034c0 .2253.182.4079.408.4079.225 0 .407-.1826.407-.4079zm.815 0v-7.33521h-.815v7.33521zm-9.952-7.33521v27.43181h.816v-27.43181zm4.976-4.976064c-2.748 0-4.976 2.227864-4.976 4.976064h.816c0-2.29768 1.863-4.16032 4.16-4.16032zm4.976 4.976064c0-2.74821-2.227-4.976064-4.976-4.976064v.815744c2.298 0 4.161 1.86264 4.161 4.16032z"/><path d="m165.747 13.5898c.225 0 .408-.1827.408-.4079 0-.2253-.183-.4079-.408-.4079zm-11.747 0h11.747v-.8158h-11.747z"/><path d="m165.747 21.4208c.225 0 .408-.1826.408-.4079 0-.2252-.183-.4078-.408-.4078zm-11.747 0h11.747v-.8157h-11.747z"/><path d="m165.747 29.2521c.225 0 .408-.1826.408-.4079 0-.2252-.183-.4078-.408-.4078zm-11.747 0h11.747v-.8157h-11.747z"/></g><g filter="url(#b)"><ellipse cx="317.5" cy="580.761" fill="url(#d)" rx="45.5" ry="21.7609"/></g><ellipse cx="317.5" cy="580.761" rx="45.5" ry="21.7609" stroke="#131d42" stroke-linejoin="round" stroke-width="1.13043"/><circle cx="333.5" cy="567.5" fill="#fff" r="8.5" stroke="#000"/><circle cx="286.5" cy="518.5" fill="#fff" r="8.5" stroke="#000"/><circle cx="342.5" cy="501.5" fill="#fff" r="8.5" stroke="#000"/></svg>