<svg fill="none" height="257" viewBox="0 0 211 257" width="211" xmlns="http://www.w3.org/2000/svg" xmlns:xlink="http://www.w3.org/1999/xlink"><filter id="a" color-interpolation-filters="sRGB" filterUnits="userSpaceOnUse" height="232.292" width="210.616" x=".185547" y="16.8997"><feFlood flood-opacity="0" result="BackgroundImageFix"/><feColorMatrix in="SourceAlpha" result="hardAlpha" type="matrix" values="0 0 0 0 0 0 0 0 0 0 0 0 0 0 0 0 0 0 127 0"/><feOffset dx="14" dy="5"/><feGaussianBlur stdDeviation="7"/><feComposite in2="hardAlpha" operator="out"/><feColorMatrix type="matrix" values="0 0 0 0 0 0 0 0 0 0 0 0 0 0 0 0 0 0 0.25 0"/><feBlend in2="BackgroundImageFix" mode="normal" result="effect1_dropShadow_2973_740"/><feBlend in="SourceGraphic" in2="effect1_dropShadow_2973_740" mode="normal" result="shape"/></filter><filter id="b" color-interpolation-filters="sRGB" filterUnits="userSpaceOnUse" height="148.276" width="88.6841" x="46.9475" y="75.0432"><feFlood flood-opacity="0" result="BackgroundImageFix"/><feBlend in="SourceGraphic" in2="BackgroundImageFix" mode="normal" result="shape"/><feColorMatrix in="SourceAlpha" result="hardAlpha" type="matrix" values="0 0 0 0 0 0 0 0 0 0 0 0 0 0 0 0 0 0 127 0"/><feOffset dy="6.91231"/><feGaussianBlur stdDeviation="3.45615"/><feComposite in2="hardAlpha" k2="-1" k3="1" operator="arithmetic"/><feColorMatrix type="matrix" values="0 0 0 0 0 0 0 0 0 0 0 0 0 0 0 0 0 0 0.25 0"/><feBlend in2="shape" mode="normal" result="effect1_innerShadow_2973_740"/></filter><linearGradient id="c" gradientUnits="userSpaceOnUse" x1="107.656" x2="-15.1966" y1="20.274" y2="119.048"><stop offset="0" stop-color="#35ff92"/><stop offset="1" stop-color="#f8cdf3"/></linearGradient><linearGradient id="d" gradientUnits="userSpaceOnUse" x1="70.5911" x2="133.844" y1="77.521" y2="214.656"><stop offset="0" stop-color="#ffe600"/><stop offset="1" stop-color="#fff" stop-opacity="0"/></linearGradient><g filter="url(#a)"><circle fill="url(#c)" r="96" stroke="#3f07ed" stroke-linejoin="round" stroke-width="1.72808" transform="matrix(.942641 .333807 0 1 91.4936 128.045)"/><g filter="url(#b)"><path d="m72.0186 157.757c.8731 6.396 3.1806 11.182 6.9226 14.36 3.7419 3.177 8.2322 5.694 13.471 7.549 6.2365 2.208 10.6648 2.983 13.2838 2.322 2.744-.748 4.116-2.975 4.116-6.68 0-2.646-.873-5.271-2.619-7.874-1.622-2.559-4.802-5.075-9.5421-7.547l-13.471-7.153c-11.8495-6.18-20.7055-12.691-26.5678-19.53-5.7377-6.928-8.6065-15.288-8.6065-25.079 0-5.029.9978-9.1743 2.9935-12.4372 2.1205-3.2187 5.0517-5.5549 8.7936-7.0086 3.742-1.4537 8.1699-2.0028 13.2839-1.6473 5.2388.2672 10.9764 1.5051 17.213 3.7136 7.7333 2.7385 14.2194 5.8954 19.4584 9.4705 5.238 3.443 9.479 7.128 12.722 11.055 3.368 3.972 5.863 8.163 7.484 12.575 1.746 4.455 2.994 8.999 3.742 13.631l-23.387-5.106c-1.123-5.161-3.118-9.375-5.987-12.64-2.744-3.221-7.2345-5.936-13.4711-8.145-3.4925-1.236-6.4237-1.944-8.7936-2.121-2.2452-.266-4.0538-.179-5.4258.262-1.2473.484-2.1828 1.212-2.8065 2.182-.4989 1.014-.7484 2.05-.7484 3.109 0 3.308.9355 6.087 2.8065 8.337 1.9957 2.163 5.8 4.767 11.4129 7.813l12.348 6.556c6.861 3.62 12.536 7.152 17.026 10.595 4.491 3.442 8.045 7.017 10.665 10.723 2.744 3.618 4.615 7.456 5.613 11.515 1.122 4.102 1.684 8.601 1.684 13.497 0 9.792-3.493 16.428-10.478 19.909-6.985 3.349-17.774 2.439-32.3676-2.728-5.8624-2.076-11.4753-4.66-16.8388-7.75-5.2387-2.913-9.9785-6.511-14.2194-10.791-4.1161-4.236-7.5463-9.156-10.2903-14.759-2.6194-5.559-4.1162-11.911-4.4904-19.057z" fill="#3f07ed"/></g><path d="m72.0186 157.757 1.6104.31-.2106-1.543-1.3998-.496zm33.6774 24.231.808 1.787.011-.003.01-.003zm1.497-14.554-1.231.696.02.031.02.03zm-9.5421-7.547-.2678 1.609.0069.004.0068.004zm-13.471-7.153.2678-1.609-.0069-.004-.0069-.004zm-26.5678-19.53-1.021.985.0151.018.0153.018zm-5.613-37.5162-1.4172-1.3538-.0103.0156-.0098.016zm8.7936-7.0086.9342 1.7465zm13.2839-1.6473.4221 1.8185.0128.0009.0126.0006zm36.6714 13.1841-.482 1.48.017.012.017.011zm12.722 11.055-1.023.982.011.014.012.014zm7.484 12.575-1.486.18.009.026.01.026zm3.742 13.631.207 1.787 1.703.372-.307-1.901zm-23.387-5.106-1.58-.141.351 1.614 1.436.314zm-5.987-12.64-.996 1.015.014.016.014.016zm-22.2647-10.266.3534 1.812.0307.004.0305.002zm-5.4258.262-.8746-1.768-.0302.01-.0294.011zm-2.8065 2.182-1.4239-1.344-.0352.055-.0294.06zm2.0581 11.446-1.0176.99.0461.055.0486.053zm11.4129 7.813-.2851 1.601.0087.004.0086.005zm12.348 6.556-.267 1.61.004.002zm17.026 10.595-.59 1.401zm10.665 10.723-1.152.814.027.039.029.038zm5.613 11.515-1.567-.08.008.03.008.029zm-8.794 33.406 1.007 1.716.007-.004.007-.003zm-49.2064-10.478.3337-1.573-.0144-.008-.0145-.008zm-14.2194-10.791-.8745 1.148.0092.01.0093.009zm-10.2903-14.759-1.3969.394.0087.019.009.018zm-4.4904-19.057v-1.728l-1.7238-.61.0975 1.86zm23.4606 8.568c.919 6.732 3.4247 12.24 7.8442 15.993l1.3777-2.644c-3.0644-2.602-5.1738-6.668-6.001-12.728zm7.8442 15.993c4.0074 3.403 8.745 6.038 14.1599 7.955v-3.456c-5.0626-1.793-9.3057-4.191-12.7822-7.143zm14.1599 7.955c6.2774 2.223 11.0778 3.141 14.0918 2.381l-1.616-3.573c-2.225.561-6.2801-.07-12.4758-2.264zm14.1128 2.375c3.295-.898 4.916-3.639 4.916-7.884l-3.258-1.154c0 3.165-1.122 4.878-3.316 5.476zm4.916-7.884c0-3.097-1.038-6.198-3.057-9.209l-2.382 1.515c1.473 2.196 2.181 4.344 2.181 6.54zm-3.017-9.147c-2.021-3.189-5.706-5.958-10.5191-8.468l-.5081 3.234c4.6672 2.434 7.3422 4.696 8.5652 6.626zm-10.5053-8.461-13.471-7.152-.5356 3.219 13.471 7.152zm-13.4848-7.16c-11.7308-6.119-20.2788-12.456-25.8313-18.934l-1.9811 2.042c6.1723 7.201 15.3361 13.884 27.3043 20.126zm-25.8009-18.898c-5.2579-6.349-7.9985-14.104-7.9985-23.518l-3.2579-1.153c0 10.17 2.9971 19.134 9.2145 26.641zm-7.9985-23.518c0-4.778.9463-8.657 2.802-11.691l-2.8747-2.6444c-2.1357 3.4919-3.1852 7.9044-3.1852 13.1824zm2.7819-11.6594c1.9936-3.0262 4.7545-5.2345 8.3105-6.6159l-1.8683-3.493c-3.9279 1.5259-7.0294 3.99-9.2767 7.4013zm8.3105-6.6159c3.5639-1.3845 7.8125-1.92 12.7718-1.5753l-.8442-3.6371c-5.2686-.3661-9.8759.1966-13.7959 1.7194zm12.7972-1.5738c5.074.2589 10.6588 1.4592 16.7655 3.6217v-3.4562c-6.3665-2.2545-12.257-3.5299-17.6605-3.8056zm16.7655 3.6217c7.6314 2.7024 13.9434 5.7878 18.9764 9.2224l.963-2.96c-5.444-3.7155-12.1041-6.9439-19.9394-9.7186zm19.0104 9.2454c5.09 3.346 9.117 6.866 12.147 10.534l2.047-1.963c-3.457-4.186-7.911-8.036-13.299-11.5769zm12.17 10.562c3.174 3.743 5.493 7.653 6.998 11.745l2.973-.361c-1.739-4.73-4.409-9.203-7.971-13.403zm7.017 11.797c1.68 4.286 2.883 8.664 3.606 13.14l3.206.517c-.774-4.787-2.065-9.496-3.878-14.121zm5.002 11.611-23.387-5.106.414 3.575 23.387 5.106zm-21.6-3.178c-1.186-5.455-3.345-10.124-6.599-13.827l-1.936 2.094c2.484 2.827 4.316 6.585 5.375 11.452zm-6.571-13.795c-3.18-3.733-8.1242-6.612-14.4671-8.858v3.456c6.1302 2.171 10.1671 4.722 12.4751 7.432zm-14.4671-8.858c-3.5784-1.267-6.6591-2.02-9.2082-2.211l.8292 3.636c2.1907.164 4.9724.825 8.379 2.031zm-9.147-2.205c-2.3596-.28-4.3638-.202-5.947.306l1.7491 3.535c1.1609-.372 2.774-.469 4.9047-.217zm-6.0066.327c-1.4124.549-2.5323 1.397-3.2962 2.585l2.8479 2.687c.4834-.752 1.2344-1.358 2.3166-1.779zm-3.3608 2.7c-.5707 1.16-.8888 2.412-.8888 3.761l3.2579 1.154c0-.768.1808-1.589.608-2.457zm-.8888 3.761c0 3.662 1.0499 7.055 3.4178 9.904l2.0352-1.979c-1.3741-1.652-2.1951-3.817-2.1951-6.771zm3.5125 10.012c2.3145 2.507 6.4378 5.269 12.0507 8.316l.5702-3.201c-5.6129-3.047-9.0982-5.493-10.7752-7.31zm12.068 8.325 12.3488 6.556.535-3.219-12.3482-6.557zm12.3528 6.558c6.793 3.585 12.349 7.049 16.699 10.384l1.181-2.803c-4.631-3.551-10.426-7.149-17.353-10.805zm16.699 10.384c4.34 3.328 7.684 6.713 10.103 10.136l2.304-1.628c-2.82-3.989-6.586-7.753-11.226-11.311zm10.159 10.213c2.525 3.329 4.23 6.832 5.142 10.544l3.133.16c-1.083-4.405-3.12-8.578-6.083-12.486zm5.158 10.603c1.059 3.872 1.606 8.181 1.606 12.941l3.258 1.154c0-5.031-.577-9.721-1.762-14.054zm1.606 12.941c0 9.287-3.282 15.495-9.869 18.778l2.041 3.417c7.383-3.68 11.086-10.744 11.086-21.041zm-9.855 18.771c-6.565 3.147-16.917 2.374-31.3616-2.742v3.457c14.7426 5.22 25.9696 6.266 33.3746 2.716zm-31.3616-2.742c-5.758-2.039-11.2587-4.571-16.5051-7.594l-.6674 3.147c5.4805 3.157 11.2057 5.791 17.1725 7.904zm-16.534-7.61c-5.0572-2.813-9.608-6.271-13.6682-10.369l-1.712 2.334c4.4215 4.463 9.3504 8.199 14.7706 11.214zm-13.6496-10.35c-3.9009-4.015-7.1627-8.686-9.7858-14.042l-2.7583.862c2.8651 5.85 6.4636 11.018 10.795 15.476zm-9.7681-14.005c-2.4489-5.197-3.8972-11.241-4.2608-18.184l-3.2527-.957c.3847 7.348 1.93 14.009 4.7198 19.929zm-5.8872-16.934 25.0711 8.878v-3.457l-25.0711-8.878z" fill="url(#d)"/></g></svg>