<svg fill="none" height="232" viewBox="0 0 209 232" width="209" xmlns="http://www.w3.org/2000/svg" xmlns:xlink="http://www.w3.org/1999/xlink"><linearGradient id="a" gradientUnits="userSpaceOnUse" x1="28.9" x2="33.2777" y1="167.581" y2="151.978"><stop offset="0" stop-color="#3f07ed"/><stop offset="1" stop-color="#ab95f0"/></linearGradient><linearGradient id="b" gradientUnits="userSpaceOnUse" x1="147.859" x2="144.093" y1="118.234" y2="84.4118"><stop offset="0" stop-color="#928da2"/><stop offset="1" stop-color="#ab95f0"/></linearGradient><mask id="c" fill="#fff"><path clip-rule="evenodd" d="m169.215 78.9805-45.727 49.6135 7.251 6.683.01-.01c3.946 2.943 16.933-5.354 29.342-18.817s19.621-27.083 16.367-30.7766l.009-.0097-.163-.1498c-.009-.0088-.019-.0176-.028-.0263-.01-.0088-.019-.0174-.029-.026z" fill="#fff" fill-rule="evenodd"/></mask><g stroke="#3f07ed" stroke-linejoin="round"><path d="m67 14.4286 13.4286-13.4286v33.5714l-13.4286 13.4286z" fill="#f9f8f2"/><path d="m67 47.9999 13.4286-13.4286h128.0004l-13.429 13.4286z" fill="#f9f8f2"/><path d="m80.4287 1h128.0713v33.5714h-128.0713z" fill="#fff"/><path d="m1 148.429 7.91304-7.429v18.571l-7.91304 7.429z" fill="#fff"/><path d="m1 167 7.63711-6.783h70.36289l-7.5 6.783z" fill="url(#a)"/><path d="m9 141h70v19h-70z" fill="#fff"/></g><g fill="#f8cdf3"><circle cx="173.5" cy="155.5" r="8" stroke="#000"/><circle cx="82.5" cy="109.5" r="8" stroke="#000"/><circle cx="127.5" cy="223.5" r="8" stroke="#000"/></g><path clip-rule="evenodd" d="m169.215 78.9805-45.727 49.6135 7.251 6.683.01-.01c3.946 2.943 16.933-5.354 29.342-18.817s19.621-27.083 16.367-30.7766l.009-.0097-.163-.1498c-.009-.0088-.019-.0176-.028-.0263-.01-.0088-.019-.0174-.029-.026z" fill="#311589" fill-rule="evenodd"/><path d="m123.488 128.594-.409-.377-.377.409.409.377zm45.727-49.6135.377-.4091-.409-.3771-.377.4091zm-38.476 56.2965-.377.409.409.377.377-.409zm.01-.01.332-.446-.402-.3-.34.369zm45.709-49.5936-.41-.377-.339.3686.331.3762zm.009-.0097.409.377.377-.409-.409-.3771zm-.163-.1498-.383.4033.006.0058zm-.057-.0523-.377.4092.007.0057zm-52.35 43.5094 45.727-49.6135-.818-.7541-45.727 49.6136zm7.219 5.897-7.251-6.683-.754.818 7.251 6.683zm-.777.022-.009.01.818.754.01-.01zm29.343-18.817c-6.181 6.706-12.495 12.112-17.736 15.469-2.623 1.681-4.954 2.832-6.849 3.385-1.926.563-3.249.466-4.016-.106l-.665.892c1.207.9 2.986.869 4.993.283 2.038-.596 4.47-1.808 7.137-3.517 5.342-3.421 11.727-8.895 17.954-15.652zm16.358-30.0318c.632.7175.837 2.0285.433 3.994-.397 1.9337-1.355 4.3503-2.816 7.1018-2.92 5.497-7.794 12.229-13.975 18.936l.818.754c6.227-6.757 11.164-13.566 14.139-19.1681 1.486-2.798 2.497-5.3203 2.924-7.3997.421-2.0478.307-3.8243-.688-4.9536zm.017-.7545-.009.0097.819.7541.009-.0098zm-.13.6363.162.1498.755-.8182-.163-.1498zm-.028-.0263c.007.0067.014.0136.022.0204l.766-.8064c-.011-.0108-.023-.0216-.034-.0322zm-.022-.0202c.007.0067.014.0134.022.0202l.754-.8182c-.012-.0107-.023-.0212-.035-.0317zm-7.039-6.4869 7.032 6.4811.754-.8181-7.032-6.4812z" fill="#000" mask="url(#c)"/><path d="m169.218 79.3606c.812.7489 1.071 2.124.717 4.0918-.351 1.9523-1.291 4.4034-2.75 7.1932-2.914 5.5758-7.866 12.4464-14.168 19.2844-6.302 6.837-12.747 12.332-18.068 15.691-2.661 1.681-5.028 2.818-6.945 3.326-1.933.513-3.324.367-4.137-.382-.812-.749-1.071-2.124-.717-4.092.35-1.952 1.291-4.403 2.749-7.193 2.915-5.576 7.867-12.447 14.169-19.2843 6.302-6.8376 12.747-12.3326 18.067-15.6914 2.662-1.6805 5.029-2.8174 6.946-3.3259 1.932-.5126 3.324-.3667 4.137.3822z" fill="url(#b)" stroke="#000" stroke-width=".556343"/></svg>