<svg fill="none" height="231" viewBox="0 0 171 231" width="171" xmlns="http://www.w3.org/2000/svg" xmlns:xlink="http://www.w3.org/1999/xlink"><linearGradient id="a" gradientUnits="userSpaceOnUse" x1="30.6926" x2="65.87" y1="232.943" y2="201.187"><stop offset="0" stop-color="#3f07ed"/><stop offset="1" stop-color="#ab95f0"/></linearGradient><linearGradient id="b" gradientUnits="userSpaceOnUse" x1="124.628" x2="158.157" y1="130.534" y2="124.713"><stop offset="0" stop-color="#928da2"/><stop offset="1" stop-color="#ab95f0"/></linearGradient><mask id="c" fill="#fff"><path clip-rule="evenodd" d="m165.11 149.458-52.308-42.618-6.229 7.645.011.009c-2.697 4.118 6.376 16.576 20.571 28.141 14.194 11.565 28.228 17.933 31.716 14.46l.011.008.139-.171c.009-.01.017-.02.025-.03s.016-.02.024-.03z" fill="#fff" fill-rule="evenodd"/></mask><g stroke="#3f07ed" stroke-linejoin="round"><path d="m29.0116 40h55v162h-55z" fill="#fff"/><path d="m1.01172 69 28.49998-29v161.5l-28.49998 29z" fill="#fff"/><path d="m1.00009 230.5 28.01161-28.5h54.9999l-28.0116 28.5z" fill="url(#a)"/></g><g fill="#35ff92"><circle cx="124.5" cy="34.5" r="8" stroke="#000"/><circle cx="62.5" cy="67.5" r="8" stroke="#000"/><circle cx="60.5" cy="8.5" r="8" stroke="#000"/></g><path clip-rule="evenodd" d="m165.11 149.458-52.308-42.618-6.229 7.645.011.009c-2.697 4.118 6.376 16.576 20.571 28.141 14.194 11.565 28.228 17.933 31.716 14.46l.011.008.139-.171c.009-.01.017-.02.025-.03s.016-.02.024-.03z" fill="#311589" fill-rule="evenodd"/><path d="m112.802 106.84.351-.431-.431-.351-.351.431zm52.308 42.618.432.352.351-.432-.431-.351zm-58.537-34.973-.431-.351-.352.431.432.352zm.011.009.465.305.275-.419-.389-.317zm52.287 42.601.352-.431-.389-.317-.355.354zm.011.008-.352.432.432.351.351-.431zm.139-.171-.426-.358-.005.006zm.049-.06-.431-.351-.006.006zm-46.62-49.6 52.309 42.617.703-.862-52.309-42.618zm-5.446 7.565 6.229-7.645-.862-.703-6.229 7.645zm-.069-.774-.01-.009-.703.863.01.008zm20.571 28.141c-7.071-5.761-12.851-11.733-16.522-16.76-1.837-2.516-3.128-4.772-3.796-6.63-.679-1.888-.663-3.215-.139-4.015l-.931-.61c-.824 1.26-.685 3.034.023 5.001.718 1.998 2.076 4.351 3.945 6.91 3.74 5.123 9.593 11.162 16.717 16.966zm30.973 14.497c-.678.674-1.974.959-3.96.675-1.955-.278-4.425-1.087-7.261-2.378-5.664-2.579-12.681-7.034-19.752-12.794l-.703.862c7.124 5.804 14.221 10.316 19.994 12.945 2.884 1.312 5.463 2.167 7.565 2.467 2.069.295 3.835.073 4.902-.989zm.754-.029-.01-.008-.703.862.01.009zm-.643-.092-.14.172.863.703.14-.172zm.025-.029c-.007.008-.013.015-.02.023l.852.716.03-.036zm.018-.024c-.006.008-.012.016-.018.024l.862.703c.01-.013.02-.025.03-.037zm6.046-7.42-6.04 7.414.862.703 6.041-7.414z" fill="#000" mask="url(#c)"/><path d="m164.731 149.484c-.698.856-2.055 1.198-4.04.965-1.971-.231-4.474-1.02-7.348-2.306-5.743-2.569-12.903-7.093-20.112-12.967-7.209-5.873-13.087-11.971-16.764-17.077-1.839-2.554-3.118-4.847-3.743-6.73-.629-1.897-.568-3.295.13-4.152.698-.856 2.054-1.199 4.04-.966 1.97.232 4.474 1.021 7.347 2.307 5.744 2.569 12.904 7.093 20.113 12.967 7.209 5.873 13.086 11.971 16.763 17.077 1.84 2.554 3.119 4.847 3.743 6.729.63 1.898.569 3.296-.129 4.153z" fill="url(#b)" stroke="#000" stroke-width=".556343"/></svg>